# Blender v3.0.1 OBJ File: 'rock1.blend'
# www.blender.org
mtllib rock1.mtl
o Cube
v 0.638087 -0.499978 -0.635697
v 0.723097 -1.000000 -0.723097
v 0.635674 -0.334819 0.367098
v 0.723097 -1.000000 1.000000
v -0.175345 -0.460243 -0.637885
v -0.260557 -1.000000 -0.723097
v -0.635507 -0.503447 0.574879
v -0.723097 -1.000000 1.000000
v 1.065592 -0.815041 -0.522564
v -1.063649 -0.793164 1.063835
v 1.067589 -0.693239 0.898647
v -0.603053 -0.815041 -1.065592
v 1.000000 -0.427673 0.677090
v -1.000000 -0.630081 1.000000
v 1.000000 -0.630081 -0.456972
v -0.537460 -0.630081 -1.000000
v 0.247425 -0.253432 0.029442
v -0.102191 -0.299810 0.086588
v 0.248088 -0.298856 -0.246360
v 0.024368 -0.287928 -0.246961
vt 0.790744 0.971482
vt 0.790744 0.971482
vt 0.790744 0.971482
vt 0.790744 0.971482
vt 0.790744 0.971482
vt 0.790744 0.971482
vt 0.790744 0.971482
vt 0.790744 0.971482
vt 0.790744 0.971482
vt 0.790744 0.971482
vt 0.790744 0.971482
vt 0.790744 0.971482
vt 0.790744 0.971482
vt 0.790744 0.971482
vt 0.790744 0.971482
vt 0.790744 0.971482
vt 0.790744 0.971482
vt 0.790744 0.971482
vt 0.790744 0.971482
vt 0.790744 0.971482
vn 0.0454 0.9053 -0.4222
vn 0.0576 0.5536 0.8308
vn -0.9169 0.3415 -0.2068
vn 0.0000 -1.0000 0.0000
vn 0.9616 0.2721 -0.0353
vn 0.3041 0.3184 -0.8978
vn 0.1877 -0.3519 -0.9170
vn 0.5788 -0.8149 0.0312
vn -0.4620 -0.8806 -0.1057
vn 0.0440 0.0724 0.9964
vn -0.0622 0.9564 0.2855
vn 0.3844 0.9099 -0.1561
vn -0.3832 0.9185 -0.0977
vn 0.2024 0.5107 -0.8356
vn -0.0683 0.9953 -0.0691
vn 0.3282 0.9322 -0.1527
vn -0.4668 0.8722 -0.1460
vn -0.0743 0.9466 0.3136
usemtl Material
s off
f 1/1/1 5/2/1 20/3/1 19/4/1
f 11/5/2 13/6/2 14/7/2 10/8/2
f 10/8/3 14/7/3 16/9/3 12/10/3
f 6/11/4 2/12/4 4/13/4 8/14/4
f 9/15/5 15/16/5 13/6/5 11/5/5
f 12/10/6 16/9/6 15/16/6 9/15/6
f 6/11/7 12/10/7 9/15/7 2/12/7
f 2/12/8 9/15/8 11/5/8 4/13/8
f 8/14/9 10/8/9 12/10/9 6/11/9
f 4/13/10 11/5/10 10/8/10 8/14/10
f 3/17/11 7/18/11 14/7/11 13/6/11
f 1/1/12 3/17/12 13/6/12 15/16/12
f 7/18/13 5/2/13 16/9/13 14/7/13
f 5/2/14 1/1/14 15/16/14 16/9/14
f 19/4/15 20/3/15 18/19/15 17/20/15
f 3/17/16 1/1/16 19/4/16 17/20/16
f 5/2/17 7/18/17 18/19/17 20/3/17
f 7/18/18 3/17/18 17/20/18 18/19/18
